<?xml version="1.0" standalone="no"?>
<!DOCTYPE svg PUBLIC "-//W3C//DTD SVG 20010904//EN"
 "http://www.w3.org/TR/2001/REC-SVG-20010904/DTD/svg10.dtd">
<svg version="1.0" xmlns="http://www.w3.org/2000/svg"
 width="96.000000pt" height="96.000000pt" viewBox="0 0 96.000000 96.000000"
 preserveAspectRatio="xMidYMid meet">
<metadata>
Created by potrace 1.14, written by Peter Selinger 2001-2017
</metadata>
<g transform="translate(0.000000,96.000000) scale(0.100000,-0.100000)"
fill="#000000" stroke="none">
<path d="M420 780 c-11 -11 -20 -30 -20 -43 0 -17 -9 -25 -41 -35 -22 -7 -57
-24 -77 -37 l-38 -25 -39 21 c-98 50 -214 -28 -201 -135 6 -50 32 -86 79 -109
34 -17 37 -23 38 -60 1 -90 25 -139 81 -169 41 -22 53 -23 258 -23 256 0 278
6 320 90 13 27 41 67 61 89 66 70 119 200 119 294 l0 42 -45 0 c-32 0 -57 -8
-85 -26 -21 -14 -56 -32 -77 -39 -36 -12 -39 -12 -76 20 -41 36 -116 75 -142
75 -9 0 -15 9 -15 25 0 30 -32 65 -60 65 -11 0 -29 -9 -40 -20z m39 -152 c10
-10 12 -10 7 -1 -5 9 3 11 31 7 21 -2 39 -9 41 -14 2 -5 10 -6 18 -3 8 3 14 0
14 -6 0 -6 -16 -11 -36 -11 -25 0 -33 3 -28 13 6 9 4 9 -7 1 -8 -6 -48 -11
-89 -12 -61 -1 -71 1 -55 11 11 6 29 13 39 14 11 2 22 6 25 8 8 9 27 5 40 -7z
m-283 -38 c12 -12 -31 -110 -47 -110 -17 0 -49 40 -49 60 0 43 68 78 96 50z
m684 -37 c-19 -62 -32 -93 -41 -93 -5 0 -9 -7 -9 -15 0 -33 -16 -12 -31 41
-12 38 -13 54 -5 51 7 -3 20 1 30 9 21 15 40 9 30 -8 -4 -7 -2 -8 5 -4 6 4 9
12 6 17 -7 11 2 29 15 29 5 0 5 -12 0 -27z m-527 -47 c-3 -6 0 -5 8 2 7 6 19
12 27 12 8 0 10 -5 6 -12 -6 -10 -4 -10 7 0 7 6 19 12 27 12 8 0 10 -5 6 -12
-6 -10 -4 -10 7 0 7 6 19 12 27 12 8 0 10 -5 6 -12 -6 -10 -4 -10 7 0 7 6 23
12 34 12 18 0 21 -6 20 -34 0 -18 -7 -42 -15 -52 -13 -18 -13 -18 6 -1 11 10
19 31 19 50 0 24 5 33 20 36 18 3 18 2 5 -15 -14 -18 -14 -18 5 -3 11 9 42 17
71 18 45 2 51 0 62 -24 14 -31 15 -46 2 -25 -6 9 -10 10 -10 3 0 -7 7 -16 16
-21 13 -7 17 -26 18 -85 1 -86 -12 -108 -73 -120 -29 -6 -32 -5 -27 11 6 16 5
16 -7 0 -11 -14 -16 -15 -27 -5 -7 7 -10 7 -7 1 4 -7 -8 -11 -34 -12 -28 -1
-38 2 -33 10 5 7 3 8 -7 2 -22 -13 -120 -14 -112 0 3 7 1 6 -8 -2 -7 -6 -23
-12 -35 -12 -19 0 -21 5 -19 46 2 25 1 43 -3 40 -3 -4 -6 -22 -7 -41 0 -19 -4
-35 -8 -35 -4 0 -20 0 -37 0 -21 0 -35 8 -46 25 -17 27 -28 119 -17 145 8 18
8 19 17 53 5 15 12 27 18 27 5 0 7 4 4 8 -3 5 17 9 44 8 31 0 47 -4 43 -10z"/>
<path d="M790 485 c0 -7 30 -13 34 -7 3 4 -4 9 -15 9 -10 1 -19 0 -19 -2z"/>
<path d="M479 493 c-13 -16 -12 -17 4 -4 16 13 21 21 13 21 -2 0 -10 -8 -17
-17z"/>
<path d="M579 498 c-5 -18 -6 -38 -1 -34 7 8 12 36 6 36 -2 0 -4 -1 -5 -2z"/>
<path d="M273 465 c0 -8 10 -23 21 -32 21 -18 21 -18 4 2 -9 11 -17 24 -16 28
0 5 -2 11 -4 13 -3 2 -5 -3 -5 -11z"/>
<path d="M322 443 c25 -27 39 -32 15 -5 -10 10 -15 21 -12 24 3 2 -2 5 -10 5
-12 0 -10 -6 7 -24z"/>
<path d="M357 448 c19 -21 31 -25 14 -5 -6 8 -9 16 -6 19 3 2 -2 5 -10 5 -13
0 -13 -3 2 -19z"/>
<path d="M390 455 c5 -7 6 -16 2 -21 -4 -5 -3 -6 2 -2 5 4 16 2 25 -4 12 -10
12 -7 -2 8 -9 11 -15 23 -12 26 3 2 -2 5 -10 5 -10 0 -12 -4 -5 -12z"/>
<path d="M437 448 c19 -21 31 -25 14 -5 -6 8 -9 16 -6 19 3 2 -2 5 -10 5 -13
0 -13 -3 2 -19z"/>
<path d="M470 456 c7 -7 13 -7 20 0 6 6 3 10 -10 10 -13 0 -16 -4 -10 -10z"/>
<path d="M600 455 c-7 -8 -16 -13 -20 -10 -5 3 -11 2 -14 -3 -10 -17 24 -8 41
10 9 10 14 18 11 18 -3 0 -11 -7 -18 -15z"/>
<path d="M653 433 c0 -9 4 -10 14 -2 7 6 13 12 13 14 0 1 -6 2 -13 2 -8 0 -14
-6 -14 -14z"/>
<path d="M679 413 c-13 -16 -12 -17 4 -4 16 13 21 21 13 21 -2 0 -10 -8 -17
-17z"/>
<path d="M374 406 c1 -8 5 -18 8 -22 4 -3 5 1 4 10 -1 8 -5 18 -8 22 -4 3 -5
-1 -4 -10z"/>
<path d="M463 404 c9 -11 15 -23 12 -26 -3 -3 5 -13 17 -24 23 -19 23 -19 5 2
-9 11 -15 23 -12 26 3 3 -5 13 -17 24 -23 19 -23 19 -5 -2z"/>
<path d="M579 418 c-5 -18 -6 -38 -1 -34 7 8 12 36 6 36 -2 0 -4 -1 -5 -2z"/>
<path d="M210 401 c0 -6 4 -12 8 -15 5 -3 9 1 9 9 0 8 -4 15 -9 15 -4 0 -8 -4
-8 -9z"/>
<path d="M406 398 c4 -5 9 -7 12 -4 3 3 15 -2 26 -11 21 -18 21 -18 3 3 -16
20 -52 30 -41 12z"/>
<path d="M277 368 c19 -21 31 -25 14 -5 -6 8 -9 16 -6 19 3 2 -2 5 -10 5 -13
0 -13 -3 2 -19z"/>
<path d="M304 382 c4 -3 14 -7 22 -8 9 -1 13 0 10 4 -4 3 -14 7 -22 8 -9 1
-13 0 -10 -4z"/>
<path d="M517 368 c19 -21 31 -25 14 -5 -6 8 -9 16 -6 19 3 2 -2 5 -10 5 -13
0 -13 -3 2 -19z"/>
<path d="M364 362 c23 -26 23 -26 23 -7 0 8 -3 13 -5 10 -3 -3 -12 1 -21 7
-10 8 -9 4 3 -10z"/>
<path d="M413 365 c0 -8 3 -13 5 -10 3 3 12 -1 21 -7 10 -8 9 -4 -3 10 -23 26
-23 26 -23 7z"/>
<path d="M240 366 c0 -2 8 -10 18 -17 15 -13 16 -12 3 4 -13 16 -21 21 -21 13z"/>
<path d="M591 367 c2 -2 11 -8 20 -15 12 -9 16 -9 16 1 0 7 -9 14 -20 14 -11
1 -18 1 -16 0z"/>
<path d="M234 333 c21 -25 36 -30 36 -11 0 6 -3 8 -7 5 -3 -4 -16 1 -27 10
-21 18 -21 18 -2 -4z"/>
<path d="M340 346 c0 -2 8 -10 18 -17 15 -13 16 -12 3 4 -13 16 -21 21 -21 13z"/>
<path d="M460 346 c0 -2 8 -10 18 -17 15 -13 16 -12 3 4 -13 16 -21 21 -21 13z"/>
<path d="M587 339 c7 -9 11 -18 8 -21 -3 -3 3 -11 12 -19 16 -12 17 -12 6 2
-7 9 -11 18 -8 21 3 3 -3 11 -12 19 -16 12 -17 12 -6 -2z"/>
<path d="M376 313 c-6 -14 -5 -15 5 -6 7 7 10 15 7 18 -3 3 -9 -2 -12 -12z"/>
<path d="M440 320 c0 -5 1 -12 3 -14 1 -2 -7 -14 -18 -27 l-20 -24 20 17 c18
15 32 58 19 58 -2 0 -4 -4 -4 -10z"/>
<path d="M496 313 c-6 -14 -5 -15 5 -6 7 7 10 15 7 18 -3 3 -9 -2 -12 -12z"/>
<path d="M630 315 c5 -7 8 -14 5 -17 -3 -2 2 -5 10 -5 10 0 12 4 5 12 -5 7 -8
14 -5 17 3 2 -2 5 -10 5 -10 0 -12 -4 -5 -12z"/>
<path d="M220 306 c0 -2 8 -10 18 -17 15 -13 16 -12 3 4 -13 16 -21 21 -21 13z"/>
<path d="M279 293 c-13 -16 -12 -17 4 -4 16 13 21 21 13 21 -2 0 -10 -8 -17
-17z"/>
<path d="M400 295 c-7 -8 -16 -13 -20 -10 -4 2 -16 -5 -26 -18 -19 -22 -19
-22 2 -4 11 9 23 15 26 12 3 -3 13 4 23 15 10 11 16 20 13 20 -3 0 -11 -7 -18
-15z"/>
<path d="M520 295 c-7 -8 -16 -13 -20 -10 -5 3 -11 2 -14 -3 -10 -17 24 -8 41
10 9 10 14 18 11 18 -3 0 -11 -7 -18 -15z"/>
<path d="M573 287 c0 -8 6 -14 14 -14 9 0 10 4 2 14 -6 7 -12 13 -14 13 -1 0
-2 -6 -2 -13z"/>
</g>
</svg>
